<mxfile host="app.diagrams.net" modified="2023-08-15T14:30:39.643Z" agent="5.0 (X11)" etag="My70ZJUG6FCnF1yzGRVu" version="15.5.0" type="github">
  <diagram id="pX8wVDH-IkX9QpO-7R4u" name="Page-1">
    <mxGraphModel dx="1792" dy="1058" grid="1" gridSize="10" guides="1" tooltips="1" connect="1" arrows="1" fold="1" page="1" pageScale="1" pageWidth="827" pageHeight="1169" math="0" shadow="0">
      <root>
        <mxCell id="0" />
        <mxCell id="1" parent="0" />
        <mxCell id="fGTqdcgiN-9NYtmqQ6RH-1" value="&lt;font style=&quot;font-size: 10px&quot;&gt;replica.idm.example.com&lt;/font&gt;" style="rounded=1;whiteSpace=wrap;html=1;" vertex="1" parent="1">
          <mxGeometry x="50" y="70" width="120" height="60" as="geometry" />
        </mxCell>
        <mxCell id="fGTqdcgiN-9NYtmqQ6RH-2" value="&lt;div&gt;client01.idm.example.com&lt;/div&gt;" style="rounded=1;whiteSpace=wrap;html=1;fontSize=10;" vertex="1" parent="1">
          <mxGeometry x="195" y="70" width="120" height="60" as="geometry" />
        </mxCell>
        <mxCell id="fGTqdcgiN-9NYtmqQ6RH-3" value="client02.idm.example.com" style="rounded=1;whiteSpace=wrap;html=1;fontSize=10;" vertex="1" parent="1">
          <mxGeometry x="340" y="70" width="120" height="60" as="geometry" />
        </mxCell>
        <mxCell id="fGTqdcgiN-9NYtmqQ6RH-4" value="Alice" style="ellipse;whiteSpace=wrap;html=1;aspect=fixed;fontSize=10;" vertex="1" parent="1">
          <mxGeometry x="141" y="185" width="80" height="80" as="geometry" />
        </mxCell>
        <mxCell id="fGTqdcgiN-9NYtmqQ6RH-6" value="John" style="ellipse;whiteSpace=wrap;html=1;aspect=fixed;fontSize=10;" vertex="1" parent="1">
          <mxGeometry x="363" y="186" width="80" height="80" as="geometry" />
        </mxCell>
        <mxCell id="fGTqdcgiN-9NYtmqQ6RH-10" value="" style="endArrow=classic;html=1;rounded=0;fontSize=10;startSize=1;endSize=1;exitX=0.5;exitY=0;exitDx=0;exitDy=0;" edge="1" parent="1" source="fGTqdcgiN-9NYtmqQ6RH-6">
          <mxGeometry relative="1" as="geometry">
            <mxPoint x="400" y="181" as="sourcePoint" />
            <mxPoint x="400" y="130" as="targetPoint" />
          </mxGeometry>
        </mxCell>
        <mxCell id="fGTqdcgiN-9NYtmqQ6RH-12" value="admin" style="ellipse;whiteSpace=wrap;html=1;aspect=fixed;fontSize=10;" vertex="1" parent="1">
          <mxGeometry x="141" y="302" width="80" height="80" as="geometry" />
        </mxCell>
        <mxCell id="fGTqdcgiN-9NYtmqQ6RH-13" value="admins (group)" style="rounded=1;whiteSpace=wrap;html=1;fontSize=10;fillColor=none;" vertex="1" parent="1">
          <mxGeometry x="121" y="172" width="120" height="230" as="geometry" />
        </mxCell>
        <mxCell id="fGTqdcgiN-9NYtmqQ6RH-14" value="" style="endArrow=classic;html=1;rounded=0;fontSize=10;startSize=1;endSize=1;exitX=0.175;exitY=-0.009;exitDx=0;exitDy=0;exitPerimeter=0;entryX=0.5;entryY=1;entryDx=0;entryDy=0;" edge="1" parent="1" source="fGTqdcgiN-9NYtmqQ6RH-13" target="fGTqdcgiN-9NYtmqQ6RH-1">
          <mxGeometry relative="1" as="geometry">
            <mxPoint x="220" y="220" as="sourcePoint" />
            <mxPoint x="320" y="220" as="targetPoint" />
          </mxGeometry>
        </mxCell>
        <mxCell id="fGTqdcgiN-9NYtmqQ6RH-15" value="SUDO" style="edgeLabel;resizable=0;html=1;align=center;verticalAlign=middle;fontSize=10;fillColor=none;" connectable="0" vertex="1" parent="fGTqdcgiN-9NYtmqQ6RH-14">
          <mxGeometry relative="1" as="geometry" />
        </mxCell>
        <mxCell id="fGTqdcgiN-9NYtmqQ6RH-16" value="Jane" style="ellipse;whiteSpace=wrap;html=1;aspect=fixed;fontSize=10;" vertex="1" parent="1">
          <mxGeometry x="263" y="247" width="80" height="80" as="geometry" />
        </mxCell>
        <mxCell id="fGTqdcgiN-9NYtmqQ6RH-17" value="" style="endArrow=classic;html=1;rounded=0;fontSize=10;startSize=1;endSize=1;exitX=0.5;exitY=0;exitDx=0;exitDy=0;" edge="1" parent="1" source="fGTqdcgiN-9NYtmqQ6RH-16" target="fGTqdcgiN-9NYtmqQ6RH-2">
          <mxGeometry relative="1" as="geometry">
            <mxPoint x="220" y="220" as="sourcePoint" />
            <mxPoint x="320" y="220" as="targetPoint" />
          </mxGeometry>
        </mxCell>
        <mxCell id="fGTqdcgiN-9NYtmqQ6RH-19" value="" style="endArrow=classic;html=1;rounded=0;fontSize=10;startSize=1;endSize=1;exitX=0.45;exitY=-0.004;exitDx=0;exitDy=0;exitPerimeter=0;entryX=0.5;entryY=1;entryDx=0;entryDy=0;" edge="1" parent="1" source="fGTqdcgiN-9NYtmqQ6RH-13" target="fGTqdcgiN-9NYtmqQ6RH-2">
          <mxGeometry relative="1" as="geometry">
            <mxPoint x="151" y="177.93" as="sourcePoint" />
            <mxPoint x="120" y="140" as="targetPoint" />
          </mxGeometry>
        </mxCell>
        <mxCell id="fGTqdcgiN-9NYtmqQ6RH-20" value="SUDO" style="edgeLabel;resizable=0;html=1;align=center;verticalAlign=middle;fontSize=10;fillColor=none;" connectable="0" vertex="1" parent="fGTqdcgiN-9NYtmqQ6RH-19">
          <mxGeometry relative="1" as="geometry" />
        </mxCell>
        <mxCell id="fGTqdcgiN-9NYtmqQ6RH-21" value="" style="endArrow=classic;html=1;rounded=0;fontSize=10;startSize=1;endSize=1;entryX=0.192;entryY=1.033;entryDx=0;entryDy=0;entryPerimeter=0;exitX=0.925;exitY=0.004;exitDx=0;exitDy=0;exitPerimeter=0;" edge="1" parent="1" source="fGTqdcgiN-9NYtmqQ6RH-13" target="fGTqdcgiN-9NYtmqQ6RH-3">
          <mxGeometry relative="1" as="geometry">
            <mxPoint x="230" y="160" as="sourcePoint" />
            <mxPoint x="265" y="140" as="targetPoint" />
          </mxGeometry>
        </mxCell>
        <mxCell id="fGTqdcgiN-9NYtmqQ6RH-22" value="SUDO" style="edgeLabel;resizable=0;html=1;align=center;verticalAlign=middle;fontSize=10;fillColor=none;" connectable="0" vertex="1" parent="fGTqdcgiN-9NYtmqQ6RH-21">
          <mxGeometry relative="1" as="geometry">
            <mxPoint x="22" y="-8" as="offset" />
          </mxGeometry>
        </mxCell>
      </root>
    </mxGraphModel>
  </diagram>
</mxfile>
